<svg version="1.1" id="Layer_1" xmlns="http://www.w3.org/2000/svg" xmlns:xlink="http://www.w3.org/1999/xlink" x="0px" y="0px"
	 viewBox="0 0 657 290" xml:space="preserve">
<style type="text/css">
	.st0{fill:#0e2484;}
</style>
<path class="st0" d="M331.6,30.5h9.7L365.2,69h0.1V30.5h8.7v52.3h-9.7l-23.8-38.4h-0.2v38.4h-8.7V30.5z"/>
<path class="st0" d="M415.4,74.3c0,1,0.1,1.8,0.4,2.2c0.3,0.4,0.8,0.7,1.6,0.7c0.2,0,0.5,0,0.9,0c0.3,0,0.7,0,1.2-0.1v5.8
	c-0.3,0.1-0.7,0.2-1.1,0.3c-0.5,0.1-0.9,0.2-1.4,0.3c-0.5,0.1-1,0.2-1.5,0.2c-0.5,0-0.9,0.1-1.2,0.1c-1.7,0-3.1-0.3-4.2-1
	c-1.1-0.7-1.9-1.9-2.2-3.6c-1.7,1.6-3.7,2.8-6.1,3.5c-2.4,0.7-4.7,1.1-7,1.1c-1.7,0-3.3-0.2-4.9-0.7c-1.6-0.5-2.9-1.1-4.1-2.1
	c-1.2-0.9-2.1-2.1-2.9-3.4c-0.7-1.4-1.1-3-1.1-4.9c0-2.3,0.4-4.2,1.3-5.7c0.9-1.5,2-2.6,3.4-3.4s3-1.4,4.7-1.8
	c1.7-0.4,3.5-0.6,5.2-0.8c1.5-0.3,3-0.5,4.3-0.6c1.4-0.1,2.6-0.3,3.6-0.6c1-0.3,1.9-0.7,2.5-1.4c0.6-0.6,0.9-1.5,0.9-2.7
	c0-1.1-0.3-2-0.8-2.6c-0.5-0.7-1.1-1.2-1.9-1.6c-0.8-0.4-1.6-0.6-2.5-0.7c-0.9-0.1-1.8-0.2-2.6-0.2c-2.3,0-4.3,0.5-5.8,1.5
	c-1.5,1-2.4,2.5-2.6,4.5H383c0.1-2.4,0.7-4.5,1.8-6.1c1-1.6,2.3-2.9,3.9-3.9c1.6-1,3.4-1.7,5.4-2.1c2-0.4,4.1-0.6,6.1-0.6
	c1.9,0,3.7,0.2,5.5,0.6c1.8,0.4,3.4,1,4.9,1.9c1.4,0.9,2.6,2,3.5,3.4c0.9,1.4,1.3,3.1,1.3,5.1V74.3z M407.1,63.8
	c-1.3,0.8-2.8,1.3-4.7,1.5c-1.9,0.2-3.7,0.4-5.6,0.8c-0.9,0.1-1.7,0.4-2.6,0.6c-0.8,0.3-1.6,0.6-2.2,1.1c-0.6,0.5-1.1,1.1-1.5,1.8
	s-0.5,1.7-0.5,2.7c0,0.9,0.3,1.7,0.8,2.3c0.5,0.6,1.2,1.1,1.9,1.5c0.8,0.4,1.6,0.6,2.5,0.8c0.9,0.1,1.7,0.2,2.5,0.2
	c0.9,0,1.9-0.1,3-0.4c1.1-0.2,2.1-0.7,3-1.2c1-0.6,1.7-1.3,2.4-2.2c0.6-0.9,1-2,1-3.3V63.8z"/>
<path class="st0" d="M420.6,44.9h6.3V33.6h8.3v11.3h7.5v6.2h-7.5v20.2c0,0.9,0,1.6,0.1,2.3c0.1,0.6,0.2,1.2,0.5,1.6
	c0.3,0.4,0.7,0.8,1.2,1c0.5,0.2,1.3,0.3,2.2,0.3c0.6,0,1.2,0,1.8,0c0.6,0,1.2-0.1,1.8-0.3v6.4c-0.9,0.1-1.8,0.2-2.7,0.3
	c-0.9,0.1-1.8,0.1-2.7,0.1c-2.2,0-4-0.2-5.3-0.6c-1.3-0.4-2.4-1-3.1-1.8c-0.8-0.8-1.3-1.8-1.5-3c-0.3-1.2-0.4-2.6-0.5-4.2V51.1h-6.3
	V44.9z"/>
<path class="st0" d="M449,30.5h8.3v7.9H449V30.5z M449,44.9h8.3v37.9H449V44.9z"/>
<path class="st0" d="M483.8,83.8c-3,0-5.7-0.5-8.1-1.5c-2.4-1-4.4-2.4-6-4.1c-1.6-1.8-2.9-3.9-3.7-6.3c-0.9-2.4-1.3-5.1-1.3-8.1
	c0-2.9,0.4-5.5,1.3-8c0.9-2.4,2.1-4.5,3.7-6.3c1.6-1.8,3.6-3.1,6-4.1c2.4-1,5.1-1.5,8.1-1.5c3,0,5.7,0.5,8.1,1.5
	c2.4,1,4.4,2.4,6,4.1c1.6,1.8,2.9,3.9,3.7,6.3s1.3,5.1,1.3,8c0,2.9-0.4,5.6-1.3,8.1c-0.9,2.4-2.1,4.5-3.7,6.3
	c-1.6,1.8-3.6,3.1-6,4.1C489.5,83.3,486.8,83.8,483.8,83.8z M483.8,77.2c1.9,0,3.5-0.4,4.8-1.2c1.4-0.8,2.5-1.8,3.4-3.1
	c0.9-1.3,1.5-2.7,1.9-4.3c0.4-1.6,0.6-3.2,0.6-4.9c0-1.6-0.2-3.2-0.6-4.8c-0.4-1.6-1.1-3-1.9-4.3c-0.9-1.2-2-2.3-3.4-3
	c-1.4-0.8-3-1.2-4.8-1.2c-1.9,0-3.5,0.4-4.8,1.2c-1.4,0.8-2.5,1.8-3.4,3c-0.9,1.2-1.5,2.7-1.9,4.3c-0.4,1.6-0.6,3.2-0.6,4.8
	c0,1.7,0.2,3.3,0.6,4.9c0.4,1.6,1.1,3,1.9,4.3c0.9,1.3,2,2.3,3.4,3.1C480.3,76.8,481.9,77.2,483.8,77.2z"/>
<path class="st0" d="M509.9,44.9h7.9v5.6l0.1,0.1c1.3-2.1,2.9-3.7,5-4.9c2-1.2,4.3-1.8,6.8-1.8c4.1,0,7.4,1.1,9.8,3.2
	c2.4,2.1,3.6,5.4,3.6,9.7v26h-8.3V59c-0.1-3-0.7-5.1-1.9-6.5c-1.2-1.3-3-2-5.5-2c-1.4,0-2.7,0.3-3.8,0.8c-1.1,0.5-2.1,1.2-2.9,2.1
	c-0.8,0.9-1.4,2-1.8,3.2c-0.4,1.2-0.7,2.5-0.7,3.9v22.3h-8.3V44.9z"/>
<path class="st0" d="M583.6,74.3c0,1,0.1,1.8,0.4,2.2c0.3,0.4,0.8,0.7,1.6,0.7c0.2,0,0.5,0,0.9,0c0.3,0,0.7,0,1.2-0.1v5.8
	c-0.3,0.1-0.7,0.2-1.1,0.3c-0.5,0.1-0.9,0.2-1.4,0.3c-0.5,0.1-1,0.2-1.5,0.2c-0.5,0-0.9,0.1-1.2,0.1c-1.7,0-3.1-0.3-4.2-1
	c-1.1-0.7-1.9-1.9-2.2-3.6c-1.7,1.6-3.7,2.8-6.1,3.5c-2.4,0.7-4.7,1.1-7,1.1c-1.7,0-3.3-0.2-4.9-0.7c-1.6-0.5-2.9-1.1-4.1-2.1
	c-1.2-0.9-2.1-2.1-2.9-3.4c-0.7-1.4-1.1-3-1.1-4.9c0-2.3,0.4-4.2,1.3-5.7c0.9-1.5,2-2.6,3.4-3.4s3-1.4,4.7-1.8
	c1.7-0.4,3.5-0.6,5.2-0.8c1.5-0.3,3-0.5,4.3-0.6c1.4-0.1,2.6-0.3,3.6-0.6c1-0.3,1.9-0.7,2.5-1.4c0.6-0.6,0.9-1.5,0.9-2.7
	c0-1.1-0.3-2-0.8-2.6c-0.5-0.7-1.1-1.2-1.9-1.6c-0.8-0.4-1.6-0.6-2.5-0.7c-0.9-0.1-1.8-0.2-2.6-0.2c-2.3,0-4.3,0.5-5.8,1.5
	c-1.5,1-2.4,2.5-2.6,4.5h-8.3c0.1-2.4,0.7-4.5,1.8-6.1c1-1.6,2.3-2.9,3.9-3.9c1.6-1,3.4-1.7,5.4-2.1c2-0.4,4.1-0.6,6.1-0.6
	c1.9,0,3.7,0.2,5.5,0.6c1.8,0.4,3.4,1,4.9,1.9c1.4,0.9,2.6,2,3.5,3.4c0.9,1.4,1.3,3.1,1.3,5.1V74.3z M575.2,63.8
	c-1.3,0.8-2.8,1.3-4.7,1.5c-1.9,0.2-3.7,0.4-5.6,0.8c-0.9,0.1-1.7,0.4-2.6,0.6c-0.8,0.3-1.6,0.6-2.2,1.1c-0.6,0.5-1.1,1.1-1.5,1.8
	c-0.4,0.8-0.5,1.7-0.5,2.7c0,0.9,0.3,1.7,0.8,2.3c0.5,0.6,1.2,1.1,1.9,1.5c0.8,0.4,1.6,0.6,2.5,0.8c0.9,0.1,1.7,0.2,2.5,0.2
	c0.9,0,1.9-0.1,3-0.4c1.1-0.2,2.1-0.7,3-1.2c1-0.6,1.7-1.3,2.4-2.2c0.6-0.9,1-2,1-3.3V63.8z"/>
<path class="st0" d="M592.8,30.5h8.3v52.3h-8.3V30.5z"/>
<path class="st0" d="M332,118.4h9.2v52.3H332V118.4z"/>
<path class="st0" d="M351.2,132.8h7.9v5.6l0.1,0.1c1.3-2.1,2.9-3.7,5-4.9c2-1.2,4.3-1.8,6.8-1.8c4.1,0,7.4,1.1,9.8,3.2
	c2.4,2.1,3.6,5.4,3.6,9.7v26h-8.3v-23.8c-0.1-3-0.7-5.1-1.9-6.5c-1.2-1.3-3-2-5.5-2c-1.4,0-2.7,0.3-3.8,0.8
	c-1.1,0.5-2.1,1.2-2.9,2.1c-0.8,0.9-1.4,2-1.8,3.2c-0.4,1.2-0.7,2.5-0.7,3.9v22.3h-8.3V132.8z"/>
<path class="st0" d="M399.5,158.5c0.2,2.4,1.2,4.1,2.8,5.1c1.6,1,3.5,1.5,5.8,1.5c0.8,0,1.7-0.1,2.7-0.2c1-0.1,1.9-0.4,2.8-0.7
	c0.9-0.3,1.6-0.8,2.2-1.5c0.6-0.7,0.8-1.5,0.8-2.6c0-1.1-0.4-2-1.2-2.6c-0.7-0.7-1.7-1.2-2.8-1.6c-1.1-0.4-2.5-0.8-3.9-1.1
	c-1.5-0.3-3-0.6-4.5-1c-1.6-0.3-3.1-0.8-4.5-1.2c-1.4-0.5-2.7-1.1-3.9-2c-1.1-0.8-2.1-1.9-2.7-3.2c-0.7-1.3-1-2.9-1-4.8
	c0-2.1,0.5-3.8,1.5-5.2c1-1.4,2.3-2.5,3.8-3.4c1.5-0.9,3.2-1.5,5.1-1.8c1.9-0.3,3.7-0.5,5.4-0.5c2,0,3.8,0.2,5.6,0.6
	c1.8,0.4,3.4,1.1,4.8,2c1.4,0.9,2.6,2.1,3.6,3.6c1,1.5,1.5,3.3,1.8,5.4h-8.7c-0.4-2-1.3-3.3-2.7-4c-1.4-0.7-3.1-1-4.9-1
	c-0.6,0-1.3,0-2.1,0.1c-0.8,0.1-1.6,0.3-2.3,0.6c-0.7,0.3-1.3,0.7-1.8,1.2c-0.5,0.5-0.7,1.2-0.7,2c0,1,0.4,1.9,1.1,2.5
	c0.7,0.6,1.6,1.2,2.8,1.6c1.1,0.4,2.5,0.8,3.9,1.1c1.5,0.3,3,0.6,4.5,1c1.5,0.3,3,0.8,4.5,1.2c1.5,0.5,2.8,1.1,3.9,2
	c1.1,0.8,2.1,1.9,2.8,3.1c0.7,1.3,1.1,2.8,1.1,4.7c0,2.2-0.5,4.1-1.5,5.7s-2.4,2.8-4,3.8c-1.6,1-3.5,1.7-5.5,2.1
	c-2,0.4-4,0.7-5.9,0.7c-2.4,0-4.6-0.3-6.6-0.8c-2-0.5-3.8-1.4-5.3-2.5c-1.5-1.1-2.7-2.5-3.5-4.1c-0.9-1.6-1.3-3.6-1.4-5.8H399.5z"/>
<path class="st0" d="M464.5,170.6h-8.2v-5.3h-0.1c-1,1.9-2.6,3.4-4.6,4.6c-2,1.1-4.1,1.7-6.2,1.7c-5,0-8.6-1.2-10.8-3.7
	c-2.2-2.5-3.3-6.2-3.3-11.2v-24h8.3V156c0,3.3,0.6,5.7,1.9,7c1.3,1.4,3,2.1,5.3,2.1c1.8,0,3.2-0.3,4.4-0.8c1.2-0.5,2.1-1.3,2.9-2.2
	c0.7-0.9,1.3-2,1.6-3.3c0.3-1.3,0.5-2.6,0.5-4.1v-22h8.3V170.6z"/>
<path class="st0" d="M473.2,132.8h7.8v7.3h0.1c0.2-1,0.7-2,1.4-3c0.7-1,1.6-1.9,2.6-2.7c1-0.8,2.1-1.5,3.3-1.9
	c1.2-0.5,2.5-0.7,3.7-0.7c1,0,1.6,0,2,0.1c0.4,0,0.7,0.1,1.1,0.1v8.1c-0.6-0.1-1.2-0.2-1.8-0.3c-0.6-0.1-1.2-0.1-1.8-0.1
	c-1.4,0-2.7,0.3-4,0.8s-2.3,1.4-3.3,2.5c-0.9,1.1-1.7,2.5-2.2,4.1c-0.5,1.6-0.8,3.5-0.8,5.6v18h-8.3V132.8z"/>
<path class="st0" d="M530.7,162.2c0,1,0.1,1.8,0.4,2.2c0.3,0.4,0.8,0.7,1.6,0.7c0.2,0,0.5,0,0.9,0c0.3,0,0.7,0,1.2-0.1v5.8
	c-0.3,0.1-0.7,0.2-1.1,0.3c-0.5,0.1-0.9,0.2-1.4,0.3c-0.5,0.1-1,0.2-1.5,0.2c-0.5,0-0.9,0.1-1.2,0.1c-1.7,0-3.1-0.3-4.2-1
	c-1.1-0.7-1.9-1.9-2.2-3.6c-1.7,1.6-3.7,2.8-6.1,3.5c-2.4,0.7-4.7,1.1-7,1.1c-1.7,0-3.3-0.2-4.9-0.7c-1.6-0.5-2.9-1.1-4.1-2.1
	c-1.2-0.9-2.1-2.1-2.9-3.4c-0.7-1.4-1.1-3-1.1-4.9c0-2.3,0.4-4.2,1.3-5.7c0.9-1.5,2-2.6,3.4-3.4c1.4-0.8,3-1.4,4.7-1.8
	c1.7-0.4,3.5-0.6,5.2-0.8c1.5-0.3,3-0.5,4.3-0.6c1.4-0.1,2.6-0.3,3.6-0.6c1-0.3,1.9-0.7,2.5-1.4c0.6-0.6,0.9-1.5,0.9-2.7
	c0-1.1-0.3-2-0.8-2.6c-0.5-0.7-1.1-1.2-1.9-1.6c-0.8-0.4-1.6-0.6-2.5-0.7c-0.9-0.1-1.8-0.2-2.6-0.2c-2.3,0-4.3,0.5-5.8,1.5
	c-1.5,1-2.4,2.5-2.6,4.5h-8.3c0.1-2.4,0.7-4.5,1.8-6.1s2.3-2.9,3.9-3.9c1.6-1,3.4-1.7,5.4-2.1c2-0.4,4.1-0.6,6.1-0.6
	c1.9,0,3.7,0.2,5.5,0.6c1.8,0.4,3.4,1,4.9,1.9c1.4,0.9,2.6,2,3.5,3.4c0.9,1.4,1.3,3.1,1.3,5.1V162.2z M522.4,151.7
	c-1.3,0.8-2.8,1.3-4.7,1.5c-1.9,0.2-3.7,0.4-5.6,0.8c-0.9,0.1-1.7,0.4-2.6,0.6c-0.8,0.3-1.6,0.6-2.2,1.1c-0.6,0.5-1.1,1.1-1.5,1.8
	c-0.4,0.8-0.5,1.7-0.5,2.7c0,0.9,0.3,1.7,0.8,2.3c0.5,0.6,1.2,1.1,1.9,1.5c0.8,0.4,1.6,0.6,2.5,0.8c0.9,0.1,1.7,0.2,2.5,0.2
	c0.9,0,1.9-0.1,3-0.4c1.1-0.2,2.1-0.7,3-1.2c1-0.6,1.7-1.3,2.4-2.2c0.6-0.9,1-2,1-3.3V151.7z"/>
<path class="st0" d="M539.7,132.8h7.9v5.6l0.1,0.1c1.3-2.1,2.9-3.7,5-4.9c2-1.2,4.3-1.8,6.8-1.8c4.1,0,7.4,1.1,9.8,3.2
	c2.4,2.1,3.6,5.4,3.6,9.7v26h-8.3v-23.8c-0.1-3-0.7-5.1-1.9-6.5c-1.2-1.3-3-2-5.5-2c-1.4,0-2.7,0.3-3.8,0.8
	c-1.1,0.5-2.1,1.2-2.9,2.1c-0.8,0.9-1.4,2-1.8,3.2c-0.4,1.2-0.7,2.5-0.7,3.9v22.3h-8.3V132.8z"/>
<path class="st0" d="M607.3,145.4c-0.3-2.3-1.3-4.1-2.8-5.3c-1.5-1.2-3.5-1.8-5.8-1.8c-1.1,0-2.2,0.2-3.4,0.5
	c-1.2,0.4-2.3,1.1-3.4,2.1c-1,1-1.9,2.4-2.6,4.2c-0.7,1.8-1,4.1-1,7c0,1.6,0.2,3.1,0.5,4.7c0.4,1.6,1,3,1.8,4.2
	c0.8,1.2,1.8,2.2,3.1,3c1.3,0.8,2.8,1.1,4.6,1.1c2.4,0,4.5-0.8,6-2.3c1.6-1.5,2.6-3.6,3-6.4h8.3c-0.8,4.9-2.6,8.7-5.6,11.3
	c-3,2.6-6.9,3.9-11.8,3.9c-3,0-5.6-0.5-7.9-1.5c-2.3-1-4.2-2.4-5.7-4.1c-1.6-1.7-2.7-3.8-3.6-6.2c-0.8-2.4-1.2-5-1.2-7.8
	c0-2.8,0.4-5.5,1.2-8c0.8-2.5,2-4.6,3.5-6.5c1.6-1.8,3.5-3.3,5.8-4.3c2.3-1,5-1.6,8.2-1.6c2.2,0,4.3,0.3,6.3,0.8
	c2,0.6,3.7,1.4,5.3,2.5c1.5,1.1,2.8,2.5,3.8,4.2c1,1.7,1.6,3.7,1.8,6.1H607.3z"/>
<path class="st0" d="M629,153.9c0,1.5,0.2,2.9,0.6,4.2c0.4,1.4,1,2.6,1.9,3.6c0.8,1,1.9,1.8,3.1,2.5c1.3,0.6,2.8,0.9,4.5,0.9
	c2.4,0,4.4-0.5,5.9-1.6c1.5-1,2.6-2.6,3.3-4.7h7.9c-0.4,2.1-1.2,3.9-2.3,5.5c-1.1,1.6-2.4,3-3.9,4.1c-1.5,1.1-3.2,1.9-5.1,2.5
	c-1.9,0.6-3.8,0.8-5.9,0.8c-3,0-5.6-0.5-7.9-1.5c-2.3-1-4.2-2.3-5.8-4.1c-1.6-1.8-2.8-3.9-3.6-6.3c-0.8-2.4-1.2-5.1-1.2-8.1
	c0-2.7,0.4-5.2,1.3-7.7c0.9-2.4,2.1-4.5,3.7-6.4c1.6-1.8,3.5-3.3,5.7-4.4c2.2-1.1,4.8-1.6,7.6-1.6c3,0,5.6,0.6,8,1.9
	c2.4,1.2,4.3,2.9,5.9,4.9c1.6,2.1,2.7,4.4,3.4,7.1c0.7,2.7,0.9,5.4,0.6,8.2H629z M648.5,148.4c-0.1-1.3-0.4-2.6-0.8-3.8
	c-0.5-1.2-1.1-2.3-1.9-3.2c-0.8-0.9-1.8-1.6-2.9-2.2c-1.1-0.6-2.4-0.8-3.8-0.8c-1.5,0-2.8,0.3-4,0.8c-1.2,0.5-2.2,1.2-3.1,2.1
	c-0.9,0.9-1.5,2-2.1,3.2c-0.5,1.2-0.8,2.5-0.8,4H648.5z"/>
<path class="st0" d="M332,206.2h25.4c4.7,0,8.4,1.1,11.3,3.2c2.8,2.1,4.2,5.4,4.2,9.7c0,2.6-0.6,4.9-1.9,6.8
	c-1.3,1.9-3.1,3.3-5.5,4.4v0.1c3.2,0.7,5.7,2.2,7.3,4.6c1.7,2.4,2.5,5.3,2.5,8.9c0,2.1-0.4,4-1.1,5.7c-0.7,1.8-1.9,3.3-3.4,4.6
	c-1.6,1.3-3.6,2.3-6,3.1c-2.4,0.8-5.3,1.1-8.7,1.1h-24V206.2z M341.2,228.1h14.9c2.2,0,4-0.6,5.5-1.9c1.5-1.2,2.2-3,2.2-5.4
	c0-2.6-0.7-4.5-2-5.6c-1.3-1.1-3.2-1.6-5.7-1.6h-14.9V228.1z M341.2,251h16.2c2.8,0,4.9-0.7,6.5-2.2c1.5-1.4,2.3-3.5,2.3-6.1
	c0-2.6-0.8-4.6-2.3-6c-1.5-1.4-3.7-2.1-6.5-2.1h-16.2V251z"/>
<path class="st0" d="M399.7,259.5c-3,0-5.7-0.5-8.1-1.5c-2.4-1-4.4-2.4-6-4.1c-1.6-1.8-2.9-3.9-3.7-6.3c-0.9-2.4-1.3-5.1-1.3-8.1
	c0-2.9,0.4-5.5,1.3-8c0.9-2.4,2.1-4.5,3.7-6.3c1.6-1.8,3.6-3.1,6-4.1c2.4-1,5.1-1.5,8.1-1.5c3,0,5.7,0.5,8.1,1.5
	c2.4,1,4.4,2.4,6,4.1c1.6,1.8,2.9,3.9,3.7,6.3c0.9,2.4,1.3,5.1,1.3,8c0,2.9-0.4,5.6-1.3,8.1c-0.9,2.4-2.1,4.5-3.7,6.3
	c-1.6,1.8-3.6,3.1-6,4.1C405.5,259,402.8,259.5,399.7,259.5z M399.7,252.9c1.9,0,3.5-0.4,4.8-1.2c1.4-0.8,2.5-1.8,3.4-3.1
	c0.9-1.3,1.5-2.7,1.9-4.3c0.4-1.6,0.6-3.2,0.6-4.9c0-1.6-0.2-3.2-0.6-4.8c-0.4-1.6-1.1-3-1.9-4.3c-0.9-1.2-2-2.3-3.4-3
	c-1.4-0.8-3-1.2-4.8-1.2c-1.9,0-3.5,0.4-4.8,1.2c-1.4,0.8-2.5,1.8-3.4,3c-0.9,1.2-1.5,2.7-1.9,4.3c-0.4,1.6-0.6,3.2-0.6,4.8
	c0,1.7,0.2,3.3,0.6,4.9c0.4,1.6,1.1,3,1.9,4.3c0.9,1.3,2,2.3,3.4,3.1C396.3,252.5,397.9,252.9,399.7,252.9z"/>
<path class="st0" d="M457.5,250.1c0,1,0.1,1.8,0.4,2.2c0.3,0.4,0.8,0.7,1.6,0.7c0.2,0,0.5,0,0.9,0c0.3,0,0.7,0,1.2-0.1v5.8
	c-0.3,0.1-0.7,0.2-1.1,0.3c-0.5,0.1-0.9,0.2-1.4,0.3c-0.5,0.1-1,0.2-1.5,0.2c-0.5,0-0.9,0.1-1.2,0.1c-1.7,0-3.1-0.3-4.2-1
	c-1.1-0.7-1.9-1.9-2.2-3.6c-1.7,1.6-3.7,2.8-6.1,3.5c-2.4,0.7-4.7,1.1-7,1.1c-1.7,0-3.3-0.2-4.9-0.7c-1.6-0.5-2.9-1.1-4.1-2.1
	c-1.2-0.9-2.1-2.1-2.9-3.4c-0.7-1.4-1.1-3-1.1-4.9c0-2.3,0.4-4.2,1.3-5.7c0.9-1.5,2-2.6,3.4-3.4s3-1.4,4.7-1.8
	c1.7-0.4,3.5-0.6,5.2-0.8c1.5-0.3,3-0.5,4.3-0.6c1.4-0.1,2.6-0.3,3.6-0.6c1-0.3,1.9-0.7,2.5-1.4c0.6-0.6,0.9-1.5,0.9-2.7
	c0-1.1-0.3-2-0.8-2.6c-0.5-0.7-1.1-1.2-1.9-1.6c-0.8-0.4-1.6-0.6-2.5-0.7c-0.9-0.1-1.8-0.2-2.6-0.2c-2.3,0-4.3,0.5-5.8,1.5
	c-1.5,1-2.4,2.5-2.6,4.5h-8.3c0.1-2.4,0.7-4.5,1.8-6.1c1-1.6,2.3-2.9,3.9-3.9c1.6-1,3.4-1.7,5.4-2.1c2-0.4,4.1-0.6,6.1-0.6
	c1.9,0,3.7,0.2,5.5,0.6c1.8,0.4,3.4,1,4.9,1.9c1.4,0.9,2.6,2,3.5,3.4c0.9,1.4,1.3,3.1,1.3,5.1V250.1z M449.2,239.5
	c-1.3,0.8-2.8,1.3-4.7,1.5c-1.9,0.2-3.7,0.4-5.6,0.8c-0.9,0.1-1.7,0.4-2.6,0.6c-0.8,0.3-1.6,0.6-2.2,1.1c-0.6,0.5-1.1,1.1-1.5,1.8
	c-0.4,0.8-0.5,1.7-0.5,2.7c0,0.9,0.3,1.7,0.8,2.3c0.5,0.6,1.2,1.1,1.9,1.5c0.8,0.4,1.6,0.6,2.5,0.8c0.9,0.1,1.7,0.2,2.5,0.2
	c0.9,0,1.9-0.1,3-0.4c1.1-0.2,2.1-0.7,3-1.2c1-0.6,1.7-1.3,2.4-2.2c0.6-0.9,1-2,1-3.3V239.5z"/>
<path class="st0" d="M466.5,220.6h7.8v7.3h0.1c0.2-1,0.7-2,1.4-3c0.7-1,1.6-1.9,2.6-2.7c1-0.8,2.1-1.5,3.3-1.9
	c1.2-0.5,2.5-0.7,3.7-0.7c1,0,1.6,0,2,0.1c0.4,0,0.7,0.1,1.1,0.1v8.1c-0.6-0.1-1.2-0.2-1.8-0.3c-0.6-0.1-1.2-0.1-1.8-0.1
	c-1.4,0-2.7,0.3-4,0.8c-1.2,0.6-2.3,1.4-3.3,2.5c-0.9,1.1-1.7,2.5-2.2,4.1c-0.5,1.6-0.8,3.5-0.8,5.6v18h-8.3V220.6z"/>
<path class="st0" d="M526.6,258.5h-7.9v-5.1h-0.1c-1.1,2.2-2.8,3.8-4.9,4.7c-2.1,1-4.4,1.4-6.8,1.4c-3,0-5.6-0.5-7.8-1.6
	c-2.2-1-4.1-2.5-5.5-4.3c-1.5-1.8-2.6-3.9-3.3-6.4s-1.1-5.1-1.1-7.9c0-3.4,0.5-6.4,1.4-8.9c0.9-2.5,2.2-4.5,3.7-6.2
	c1.5-1.6,3.3-2.8,5.3-3.6c2-0.8,4-1.1,6-1.1c1.2,0,2.4,0.1,3.6,0.3c1.2,0.2,2.4,0.6,3.5,1.1c1.1,0.5,2.2,1.1,3.1,1.9
	c1,0.8,1.7,1.6,2.4,2.7h0.1v-19.3h8.3V258.5z M497.5,240c0,1.6,0.2,3.2,0.6,4.8c0.4,1.6,1,3,1.9,4.2c0.9,1.2,1.9,2.2,3.3,2.9
	c1.3,0.7,2.9,1.1,4.7,1.1c1.9,0,3.5-0.4,4.8-1.2c1.3-0.8,2.4-1.8,3.3-3.1c0.9-1.3,1.5-2.7,1.9-4.3c0.4-1.6,0.6-3.2,0.6-4.9
	c0-4.2-0.9-7.5-2.8-9.8c-1.9-2.3-4.4-3.5-7.7-3.5c-2,0-3.6,0.4-4.9,1.2c-1.3,0.8-2.4,1.9-3.3,3.1c-0.9,1.3-1.5,2.8-1.8,4.4
	C497.7,236.6,497.5,238.3,497.5,240z"/>
<path class="st0" d="M291.6,145c0-80.1-65.3-145-145.8-145S0,64.9,0,145c0,35,12.5,67.2,33.3,92.2c13.6,7.5,28.2,9.8,43.7,10.4
	c11.5,0.4,23.1,1.3,34.5,2.8c19.9,2.5,34.6,13.7,37.9,28.4c0.6,2.6,0.2,5.4,0.1,8.1c-0.1,1.4-0.5,2.4-1.4,3.1
	C227.5,288.9,291.6,224.4,291.6,145z M168.7,262.8c-0.3,6.7-1.5,13.4-6.6,19.6c-0.8-4.2-1.3-7.8-2.3-11.3
	c-5.6-18.1-20.7-28.1-40.3-34.1c-12.8-3.9-26.3-4.8-39.7-6c-16.5-1.5-32-5.3-45.7-13.7c-22.2-13.6-32.9-41.7-24.1-63.6
	c0.1-0.3,0.4-0.6,0.8-1.2c0.5,0.7,1,1.2,1.1,1.7c4.5,16.6,17.1,27.5,34.6,34c13.1,4.8,27,7.9,40.6,11.5c13.6,3.7,27.7,6.3,40.9,10.7
	C153,218.9,169.8,240.9,168.7,262.8z M193.1,276.8c-5.8,3.6-12.3,6.3-18.8,9c3.6-5,7.5-9.9,10.7-15c10.2-16.7,9.2-33.1-2.2-49.1
	c-8.3-11.7-19.6-21.1-31.2-30.4c-15.2-12.2-30.8-24-45.6-36.5c-11.4-9.7-20.6-20.8-25.2-34.2c-10.1-29.4,11.5-63.8,48.3-68.9
	c5-0.7,10.3-0.1,15.4,0c1.4,0,2.9,0.2,4.3,0.3c0.5-0.5,1-1.1,1.5-1.6c-1.3-0.5-2.7-0.9-3.9-1.6c-10.6-6.4-22-7.1-33.8-3.4
	c-15.5,4.9-26.6,14.2-35.4,25.9c-0.5,0.7-1,1.3-1.8,2.4c4.4-22.4,30.4-48,68.6-50.3c44.6-2.8,75.2,23.5,80.6,57.8
	c-10.2,0.3-18.1-2.7-23.3-10.2c-1.7-2.5-3.5-5-5.7-7.3c-5.5-5.8-17.9-7-25.3-2c11.1,5.4,16.1,13.5,15.5,24.2
	c-0.4,6.8-2.7,13.1-6.6,19.5c-3.1-3.2-5.8-6.2-8.7-8.9c-11.9-11.3-28.6-22.6-47.8-18.9c-1.4,0.3-2.8,0.7-4.1,1.2
	c-1.3,0.5-2.4,1.2-3.5,2c-0.8,0.6-1.5,1.2-2.2,1.8c-9.1,8.5-9.5,20.8-4.4,31c6.7,13.4,19.6,22.7,32.7,31.4
	c15.5,10.3,31.3,20.2,46.5,30.8c13.9,9.8,25.3,21.5,31.2,36.5C228.9,237.1,216.6,262.3,193.1,276.8z M194.8,68.1
	c0,2.3-2.1,4.1-4.8,4.1s-4.8-1.8-4.8-4.1c0-2.3,2.1-4.1,4.8-4.1S194.8,65.9,194.8,68.1z M235.1,138.3c-5.1,7.6-12.2,13.9-20.3,19.2
	c-6.4,4.1-13.8,7.1-21.5,10.2c10.2-20.7,5.4-39.9-6.1-58.9c14.2,6,21.4,21.2,18,37c7.3-2,14.5-17.2,14.4-24.8
	c-0.2-10.4-5-18.9-14-26.1c8.1,1.6,16.8,8.5,20.6,15.9c4,7.7,3.8,15.8,2.5,24c6.8-7.1,7.9-18.4,5.8-27.7c-0.7-3.2-1.8-6.3-3.3-9.2
	c-0.7-1.4-3.6-8.2-4.9-8.6c1.6,0.5,4.3,0.7,5.3,1.9c3.4,3.8,6.4,7.6,8.5,11.8c1.8,3.6,2.8,7.5,2.8,12.1
	C242.8,123.3,239.6,131.6,235.1,138.3z"/>
</svg>
